<svg xmlns="http://www.w3.org/2000/svg" width="648px" height="96px" viewBox="0 0 648 96">
<g id="bg">
<rect fill="#FFFFFF" width="535" height="96"/>
<rect x="272" fill="#2A2A28" width="252" height="96"/>
<polygon fill="#f2de03" points="612,0 453,0 453,96 648,96"/>
<polygon fill="#f2de03" points="113,0 272,0 272,96 77,96"/>
</g>
<g id="logo">
<polygon fill="#2A2A28" points="92.837,20.06 80.361,20.06 80.361,7.678 6.5,7.678 6.5,81.539 80.361,81.539 80.361,28.605 92.837,28.605"/>
<rect x="19" y="29" fill="#FFFFFF" width="51" height="35"/>
<path fill="#e2d112" d="M39.165,11.304H48l11.863,66.257h-9.971l-1.136-8.074h-12.24L35,77.562h-9.97L39.165,11.304z M37.776,61.911h9.718L43.33,32.382L37.776,61.911z"/>
</g>
<g id="tekst-outline">
<path fill="#2A2A28" d="M98.299,80.074v-60.18h26.945v9.01h-17.17v15.979h15.895v8.33h-15.895v17.766h18.02v9.095H98.299z"/>
<path fill="#2A2A28" d="M135.358,80.074v-60.18h10.285V70.64h16.575v9.435H135.358z"/>
<path fill="#2A2A28" d="M168.848,80.074v-60.18h10.2v60.18H168.848z"/>
<path fill="#2A2A28" d="M191.288,80.074v-60.18h26.945v9.01h-17.17v15.979h15.895v8.33h-15.895v17.766h18.02v9.095H191.288z"/>
<path fill="#2A2A28" d="M253.252,80.074l-9.351-25.67h-5.694v25.67h-9.86v-60.18h17.17c2.493,0,4.788,0.326,6.885,0.978 c2.096,0.651,3.896,1.687,5.397,3.103c1.501,1.417,2.678,3.202,3.527,5.354c0.851,2.154,1.275,4.732,1.275,7.735 c0,2.324-0.298,4.377-0.893,6.162s-1.347,3.302-2.252,4.548c-0.907,1.247-1.913,2.252-3.018,3.018 c-1.105,0.765-2.197,1.289-3.272,1.572l10.795,27.71H253.252z M252.571,37.574c0-1.812-0.255-3.315-0.765-4.505 c-0.51-1.19-1.177-2.125-1.998-2.805c-0.821-0.681-1.742-1.161-2.762-1.445c-1.021-0.283-2.04-0.425-3.061-0.425h-5.779v18.529 h5.779c2.493,0,4.548-0.778,6.163-2.337C251.764,43.029,252.571,40.691,252.571,37.574z"/>
<path fill="#f2de03" d="M306.715,63.244c0,3.174-0.524,5.822-1.572,7.947c-1.049,2.125-2.38,3.854-3.995,5.186 c-1.615,1.332-3.429,2.281-5.439,2.848c-2.013,0.566-3.982,0.85-5.908,0.85h-17.85v-60.18h15.979c1.756,0,3.626,0.212,5.61,0.637 c1.983,0.426,3.796,1.19,5.44,2.296c1.643,1.104,3.003,2.635,4.08,4.59c1.075,1.955,1.614,4.491,1.614,7.607 c0,3.74-0.794,6.687-2.38,8.84c-1.587,2.154-3.429,3.655-5.524,4.505v0.17c1.133,0.284,2.28,0.766,3.442,1.445 c1.16,0.68,2.223,1.63,3.188,2.848c0.963,1.219,1.756,2.691,2.38,4.42C306.403,58.98,306.715,60.979,306.715,63.244z M295.495,36.64c0-1.53-0.24-2.818-0.719-3.868c-0.478-1.048-1.099-1.897-1.857-2.55c-0.762-0.65-1.648-1.118-2.662-1.402 c-1.015-0.283-2.056-0.425-3.126-0.425h-5.576V45.14h5.746c1.013,0,2.014-0.156,2.999-0.468c0.985-0.311,1.857-0.808,2.619-1.487 c0.759-0.681,1.38-1.559,1.857-2.636C295.255,39.474,295.495,38.169,295.495,36.64z M296.94,62.395 c0-1.756-0.283-3.243-0.847-4.463c-0.562-1.218-1.296-2.21-2.197-2.975c-0.902-0.766-1.888-1.317-2.958-1.658 c-1.07-0.34-2.143-0.51-3.213-0.51h-6.171v18.785h6.425c1.24,0,2.396-0.184,3.466-0.553c1.07-0.367,2.014-0.935,2.832-1.7 c0.816-0.765,1.465-1.713,1.944-2.847C296.699,65.342,296.94,63.981,296.94,62.395z"/>
<path fill="#f2de03" d="M340.971,80.074l-9.351-25.67h-5.694v25.67h-9.86v-60.18h17.17c2.493,0,4.788,0.326,6.885,0.978 c2.096,0.651,3.896,1.687,5.397,3.103c1.501,1.417,2.678,3.202,3.527,5.354c0.851,2.154,1.275,4.732,1.275,7.735 c0,2.324-0.298,4.377-0.893,6.162s-1.347,3.302-2.252,4.548c-0.907,1.247-1.913,2.252-3.018,3.018 c-1.105,0.765-2.197,1.289-3.272,1.572l10.795,27.71H340.971z M340.29,37.574c0-1.812-0.255-3.315-0.765-4.505 c-0.51-1.19-1.177-2.125-1.998-2.805c-0.821-0.681-1.742-1.161-2.762-1.445c-1.021-0.283-2.04-0.425-3.061-0.425h-5.779v18.529 h5.779c2.493,0,4.548-0.778,6.163-2.337C339.482,43.029,340.29,40.691,340.29,37.574z"/>
<path fill="#f2de03" d="M385.764,80.074l-2.975-12.75h-15.811l-3.06,12.75h-10.2l14.96-60.18h13.005l14.705,60.18H385.764z M375.139,29.499h-0.34l-6.545,29.835h13.26L375.139,29.499z"/>
<path fill="#f2de03" d="M443.988,80.074l0.17-46.24h-0.255l-12.069,46.24h-7.99l-11.815-46.24h-0.255l0.17,46.24h-9.265v-60.18 h13.685l11.561,44.029h0.34l11.305-44.029h14.365v60.18H443.988z"/>
<path fill="#2A2A28" d="M460.647,80.074l22.95-60.52h9.775l24.14,60.52H460.647z M488.357,30.689l-14.705,40.545h30.431 L488.357,30.689z"/>
<path fill="#2A2A28" d="M524.312,80.074v-60.18h10.285V70.64h16.575v9.435H524.312z"/>
<path fill="#2A2A28" d="M583.897,80.074l-2.975-12.75h-15.811l-3.06,12.75h-10.2l14.96-60.18h13.005l14.705,60.18H583.897z M573.272,29.499h-0.34l-6.545,29.835h13.26L573.272,29.499z"/>
<path fill="#2A2A28" d="M635.577,63.244c0,3.174-0.524,5.822-1.572,7.947c-1.049,2.125-2.38,3.854-3.995,5.186 c-1.615,1.332-3.429,2.281-5.439,2.848c-2.013,0.566-3.982,0.85-5.908,0.85h-17.85v-60.18h15.979c1.756,0,3.626,0.212,5.61,0.637 c1.983,0.426,3.796,1.19,5.44,2.296c1.643,1.104,3.003,2.635,4.08,4.59c1.075,1.955,1.614,4.491,1.614,7.607 c0,3.74-0.794,6.687-2.38,8.84c-1.587,2.154-3.429,3.655-5.524,4.505v0.17c1.133,0.284,2.28,0.766,3.442,1.445 c1.16,0.68,2.223,1.63,3.188,2.848c0.963,1.219,1.756,2.691,2.38,4.42C635.266,58.98,635.577,60.979,635.577,63.244z M624.357,36.64c0-1.53-0.24-2.818-0.719-3.868c-0.478-1.048-1.099-1.897-1.857-2.55c-0.762-0.65-1.648-1.118-2.662-1.402 c-1.015-0.283-2.056-0.425-3.126-0.425h-5.576V45.14h5.746c1.013,0,2.014-0.156,2.999-0.468c0.985-0.311,1.857-0.808,2.619-1.487 c0.759-0.681,1.38-1.559,1.857-2.636C624.117,39.474,624.357,38.169,624.357,36.64z M625.803,62.395 c0-1.756-0.283-3.243-0.847-4.463c-0.562-1.218-1.296-2.21-2.197-2.975c-0.902-0.766-1.888-1.317-2.958-1.658 c-1.07-0.34-2.143-0.51-3.213-0.51h-6.171v18.785h6.425c1.24,0,2.396-0.184,3.466-0.553c1.07-0.367,2.014-0.935,2.832-1.7 c0.816-0.765,1.465-1.713,1.944-2.847C625.562,65.342,625.803,63.981,625.803,62.395z"/>
</g>
</svg>
