<svg xmlns="http://www.w3.org/2000/svg" width="313" height="60" viewBox="0 0 313 60"><polygon points="39.0880013 4.0019999 15.9960003 12.0019999 39.0880013 12.0019999" fill="#645E54"/><polygon points="68.9386902 11.9998016 15.9997129 11.9998016 15.9997129 50.3301048 62.1758919 50.3301048 62.1758919 17.1863098 68.9386902 17.1863098" fill="#2C2A25"/><path d="M73.78022 48.0002594V11.9997911h16.1188507v5.3898916H79.6277618v9.5594616h9.5085831v4.9831161h-9.5085831v10.6272602h10.7797775v5.4407387H73.78022z" fill="#2C2A25"/><path d="M97.2321243 48.0002594V11.9997911h6.1526184v30.3563309h9.9153519v5.6441383H97.2321243z" fill="#2C2A25"/><path d="M118.5488052 48.0002594V11.9997911h6.1017914v36.0004692H118.5488052z" fill="#2C2A25"/><path d="M133.2549896 48.0002594V11.9997911h16.1188507v5.3898916h-10.271286v9.5594616h9.508606v4.9831161h-9.508606v10.6272602h10.7797852v5.4407387H133.2549896z" fill="#2C2A25"/><path d="M171.6053925 48.0002594l-5.5932922-15.3561249h-3.4068146v15.3561249h-5.8983917V11.9997911h10.2713318c1.4912872 0 2.864212 0.1954422 4.1187286 0.5847616 1.2537079 0.390089 2.3302307 1.009017 3.2288208 1.8559599 0.8977966 0.8477125 1.6017456 1.9155378 2.1101837 3.2034197 0.5084991 1.2886791 0.7627258 2.8308105 0.7627258 4.6271667 0 1.390379-0.1779327 2.6186848-0.5338593 3.6865082 -0.3559723 1.0677986-0.8056335 1.9751148-1.3475037 2.7203579 -0.5426178 0.7460384-1.1440735 1.3474865-1.8050842 1.805109 -0.661026 0.4576511-1.3141479 0.7714787-1.9576721 0.9407139l6.4577179 16.5764713H171.6053925zM171.1986542 22.5762005c0-1.0844822-0.1525879-1.9830723-0.4576874-2.6949463 -0.3050385-0.711874-0.7038879-1.2711983-1.1948853-1.6779976 -0.4918365-0.4067745-1.0424042-0.6943932-1.6525574-0.8644238 -0.610199-0.1692085-1.2203979-0.2542248-1.8305511-0.2542248h-3.4576874v11.0848827h3.4576874c1.4912872 0 2.7203979-0.4655819 3.6864624-1.3983097C170.7155609 25.839222 171.1986542 24.4408875 171.1986542 22.5762005z" fill="#2C2A25"/><rect x="21.9754543" y="17.1863098" width="34.2003593" height="20.649065" fill="#FFF"/><path d="M45.4946594 48.0002594l-1.7796974-7.6272125h-9.457737l-1.8305473 7.6272125H26.324913l8.9492607-36.0004692h7.7797623l8.7967377 36.0004692H45.4946594zM39.1386452 17.7456322h-0.2034035l-3.9152908 17.8476982h7.9322853L39.1386452 17.7456322z" fill="#DA9C0B"/><path d="M204.9757843 38.3816681c0 1.8987198-0.313797 3.4836388-0.9404144 4.7547493 -0.6276093 1.2711105-1.4240417 2.304882-2.3892975 3.1013107 -0.9662323 0.7964325-2.051651 1.36446-3.2542419 1.7030907 -1.2035828 0.3396263-2.3823395 0.5084457-3.5342865 0.5084457h-10.6773224V12l9.5591431 0.451499c1.0506592 0 2.1688385 0.1271105 3.355545 0.3813334 1.1866913 0.2542219 2.2711182 0.711524 3.2542419 1.3728991 0.9831238 0.6608782 1.7964325 1.5759783 2.440918 2.7453012 0.6435089 1.169323 0.9652557 2.6867123 0.9652557 4.5506763 0 2.2373543-0.4746857 4.0000286-1.4230499 5.2880211 -0.9493561 1.2879925-2.051651 2.1857147-3.3048859 2.6941586v0.1022854c0.6772614 0.1698132 1.3634644 0.457798 2.058609 0.8639584 0.6951294 0.4071522 1.3306885 0.9751797 1.906662 1.7030888 0.5759735 0.7298965 1.0506592 1.6107368 1.4240417 2.6445084C204.789093 35.831501 204.9757843 37.0271378 204.9757843 38.3816681zM198.2647247 22.4679527c0-0.9155979-0.1439972-1.6862087-0.4299927-2.3138199 -0.2859955-0.6266174-0.6574097-1.1350613-1.1112366-1.5253334 -0.4558105-0.3892765-0.9860992-0.6688213-1.5918579-0.8386345 -0.6077576-0.1693153-1.2304077-0.2542229-1.8709259-0.2542229h-3.334671v10.0164547h3.4369659c0.6057587 0 1.2045746-0.0933475 1.793457-0.2800426 0.5898743-0.1857014 1.1112213-0.4826241 1.5670319-0.8897762 0.4538269-0.4061604 0.8252411-0.9314861 1.1112366-1.5759792C198.1207275 24.1630974 198.2647247 23.3830528 198.2647247 22.4679527zM199.1286774 37.8732224c0-1.0496597-0.168808-1.9394379-0.5054626-2.6693344 -0.3376312-0.7279091-0.7755737-1.3217545-1.3148041-1.7795563 -0.5402222-0.4568024-1.1291046-0.7874908-1.7696228-0.991066 -0.6405182-0.2035789-1.2810364-0.3048706-1.9215698-0.3048706h-3.6911774v11.2364235h3.8431244c0.741806 0 1.4329681-0.1092377 2.0735016-0.3306885 0.6395264-0.2194633 1.2035828-0.5590897 1.693161-1.0168877 0.4885712-0.457798 0.8768616-1.0248337 1.1628571-1.7030907C198.9846954 39.6368904 199.1286774 38.8225822 199.1286774 37.8732224z" fill="#D8E8FD"/><path d="M226.7385406 48l-5.5932465-15.3555756h-3.4063873V48h-5.8991089V12h10.2718048c1.4906616 0 2.864151 0.1951475 4.118454 0.5844498 1.2533112 0.390295 2.3298492 1.0090065 3.2286224 1.8561354 0.8977814 0.8476257 1.6018982 1.9157228 2.1103821 3.2032995 0.5084686 1.2885704 0.7627106 2.8308811 0.7627106 4.62743 0 1.3903637-0.1777649 2.6188488-0.5343018 3.686451 -0.3555298 1.0676003-0.8054199 1.9753094-1.3466644 2.7201481 -0.5432281 0.7458305-1.1440735 1.3476582-1.805481 1.8054867 -0.6614227 0.4568329-1.3139038 0.7706585-1.9574432 0.9404812L233.1451263 48H226.7385406zM226.3313599 22.5762005c0-1.0844841-0.151947-1.9832535-0.4568329-2.6948223 -0.3058777-0.7120647-0.7041168-1.2711906-1.1957245-1.6778717 -0.4915924-0.4071789-1.0417786-0.694685-1.6525421-0.8645096 -0.6097717-0.1693249-1.2195435-0.2542362-1.830307-0.2542362h-3.4570465v11.0846767h3.4570465c1.4916534 0 2.7201385-0.4657726 3.6864471-1.3983097C225.8487091 25.8395844 226.3313599 24.4407787 226.3313599 22.5762005z" fill="#D8E8FD"/><path d="M254.806015 48l-1.7796631-7.62714h-9.4574585L241.7375793 48h-6.1017151l8.9499817-36h7.7790833l8.7970276 36H254.806015zM248.450058 17.7456799h-0.2035828l-3.9148712 17.8473072h7.9320221L248.450058 17.7456799z" fill="#D8E8FD"/><path d="M290.9078064 48l0.1012878-27.6612911h-0.1529236L283.6362 48h-4.7798767l-7.0680237-27.6612911h-0.151947L271.7376709 48h-5.5426025V12h8.1872559l6.9151001 26.3389549h0.2035828L288.2631226 12h8.5934448v36H290.9078064z" fill="#D8E8FD"/></svg>
