<svg xmlns="http://www.w3.org/2000/svg" width="648px" height="96px" viewBox="0 0 648 96"> 
<g id="bg">
	<rect fill="#D4EAF7" width="535" height="96"/>
	<rect x="272" fill="#2A2A28" width="252" height="96"/>
	<polygon fill="#9B9B97" points="612,0 453,0 453,96 648,96"/>
	<polygon fill="#9B9B97" points="113,0 272,0 272,96 77,96"/>
</g>
<g id="logo">
	<polygon fill="#2A2A28" points="91.82,19.82 80.5,19.82 80.5,7 8.484,7 8.484,85 80.5,85 80.5,28.49 91.82,28.49"/>
	<rect x="18.484" y="28.49" fill="#FFFFFF" width="52" height="38"/>
	<g>
		<path fill="#E2D112" d="M39.255,11.385h9.15L60.689,80H50.364l-1.177-8.36H36.511L34.942,80H24.617L39.255,11.385z M37.817,63.793 H47.88l-4.312-30.58L37.817,63.793z"/>
	</g>
</g>
<g id="tekst-outline">
	<path fill="#2A2A28" d="M98.299,80V19.82h26.945v9.01h-17.17V44.81h15.895v8.33h-15.895v17.766h18.02V80H98.299z"/>
	<path fill="#2A2A28" d="M135.358,80V19.82h10.285v50.745h16.575V80H135.358z"/>
	<path fill="#2A2A28" d="M168.848,80V19.82h10.2V80H168.848z"/>
	<path fill="#2A2A28" d="M191.288,80V19.82h26.945v9.01h-17.17V44.81h15.895v8.33h-15.895v17.766h18.02V80H191.288z"/>
	<path fill="#2A2A28" d="M253.252,80l-9.351-25.67h-5.694V80h-9.86V19.82h17.17c2.493,0,4.788,0.326,6.885,0.978 c2.096,0.651,3.896,1.687,5.397,3.103c1.501,1.417,2.678,3.202,3.527,5.354c0.851,2.154,1.275,4.732,1.275,7.735 c0,2.324-0.298,4.377-0.893,6.162s-1.347,3.302-2.252,4.548c-0.907,1.247-1.913,2.252-3.018,3.018 c-1.105,0.765-2.197,1.289-3.272,1.572L263.962,80H253.252z M252.571,37.5c0-1.812-0.255-3.315-0.765-4.505 c-0.51-1.19-1.177-2.125-1.998-2.805c-0.821-0.681-1.742-1.161-2.762-1.445c-1.021-0.283-2.04-0.425-3.061-0.425h-5.779V46.85 h5.779c2.493,0,4.548-0.778,6.163-2.337C251.764,42.955,252.571,40.617,252.571,37.5z"/>
	<path fill="#9B9B97" d="M306.715,63.17c0,3.174-0.524,5.822-1.572,7.947c-1.049,2.125-2.38,3.854-3.995,5.186 c-1.615,1.332-3.429,2.281-5.439,2.848c-2.013,0.566-3.982,0.85-5.908,0.85h-17.85V19.82h15.979c1.756,0,3.626,0.212,5.61,0.637 c1.983,0.426,3.796,1.19,5.44,2.296c1.643,1.104,3.003,2.635,4.08,4.59c1.075,1.955,1.614,4.491,1.614,7.607 c0,3.74-0.794,6.687-2.38,8.84c-1.587,2.154-3.429,3.655-5.524,4.505v0.17c1.133,0.284,2.28,0.766,3.442,1.445 c1.16,0.68,2.223,1.63,3.188,2.848c0.963,1.219,1.756,2.691,2.38,4.42C306.403,58.906,306.715,60.904,306.715,63.17z M295.495,36.565c0-1.53-0.24-2.818-0.719-3.868c-0.478-1.048-1.099-1.897-1.857-2.55c-0.762-0.65-1.648-1.118-2.662-1.402 c-1.015-0.283-2.056-0.425-3.126-0.425h-5.576v16.745h5.746c1.013,0,2.014-0.156,2.999-0.468c0.985-0.311,1.857-0.808,2.619-1.487 c0.759-0.681,1.38-1.559,1.857-2.636C295.255,39.399,295.495,38.095,295.495,36.565z M296.94,62.32 c0-1.756-0.283-3.243-0.847-4.463c-0.562-1.218-1.296-2.21-2.197-2.975c-0.902-0.766-1.888-1.317-2.958-1.658 c-1.07-0.34-2.143-0.51-3.213-0.51h-6.171V71.5h6.425c1.24,0,2.396-0.184,3.466-0.553c1.07-0.367,2.014-0.935,2.832-1.7 c0.816-0.765,1.465-1.713,1.944-2.847C296.699,65.268,296.94,63.907,296.94,62.32z"/>
	<path fill="#9B9B97" d="M340.971,80l-9.351-25.67h-5.694V80h-9.86V19.82h17.17c2.493,0,4.788,0.326,6.885,0.978 c2.096,0.651,3.896,1.687,5.397,3.103c1.501,1.417,2.678,3.202,3.527,5.354c0.851,2.154,1.275,4.732,1.275,7.735 c0,2.324-0.298,4.377-0.893,6.162s-1.347,3.302-2.252,4.548c-0.907,1.247-1.913,2.252-3.018,3.018 c-1.105,0.765-2.197,1.289-3.272,1.572L351.681,80H340.971z M340.29,37.5c0-1.812-0.255-3.315-0.765-4.505 c-0.51-1.19-1.177-2.125-1.998-2.805c-0.821-0.681-1.742-1.161-2.762-1.445c-1.021-0.283-2.04-0.425-3.061-0.425h-5.779V46.85 h5.779c2.493,0,4.548-0.778,6.163-2.337C339.482,42.955,340.29,40.617,340.29,37.5z"/>
	<path fill="#9B9B97" d="M385.764,80l-2.975-12.75h-15.811L363.919,80h-10.2l14.96-60.18h13.005L396.389,80H385.764z M375.139,29.425h-0.34l-6.545,29.835h13.26L375.139,29.425z"/>
	<path fill="#9B9B97" d="M443.988,80l0.17-46.24h-0.255L431.834,80h-7.99l-11.815-46.24h-0.255l0.17,46.24h-9.265V19.82h13.685 l11.561,44.029h0.34l11.305-44.029h14.365V80H443.988z"/>
	<path fill="#2A2A28" d="M460.647,80l22.95-60.52h9.775L517.513,80H460.647z M488.357,30.615L473.652,71.16h30.431L488.357,30.615z" />
	<path fill="#2A2A28" d="M524.312,80V19.82h10.285v50.745h16.575V80H524.312z"/>
	<path fill="#2A2A28" d="M583.897,80l-2.975-12.75h-15.811L562.053,80h-10.2l14.96-60.18h13.005L594.522,80H583.897z M573.272,29.425h-0.34l-6.545,29.835h13.26L573.272,29.425z"/>
	<path fill="#2A2A28" d="M635.577,63.17c0,3.174-0.524,5.822-1.572,7.947c-1.049,2.125-2.38,3.854-3.995,5.186 c-1.615,1.332-3.429,2.281-5.439,2.848c-2.013,0.566-3.982,0.85-5.908,0.85h-17.85V19.82h15.979c1.756,0,3.626,0.212,5.61,0.637 c1.983,0.426,3.796,1.19,5.44,2.296c1.643,1.104,3.003,2.635,4.08,4.59c1.075,1.955,1.614,4.491,1.614,7.607 c0,3.74-0.794,6.687-2.38,8.84c-1.587,2.154-3.429,3.655-5.524,4.505v0.17c1.133,0.284,2.28,0.766,3.442,1.445 c1.16,0.68,2.223,1.63,3.188,2.848c0.963,1.219,1.756,2.691,2.38,4.42C635.266,58.906,635.577,60.904,635.577,63.17z M624.357,36.565c0-1.53-0.24-2.818-0.719-3.868c-0.478-1.048-1.099-1.897-1.857-2.55c-0.762-0.65-1.648-1.118-2.662-1.402 c-1.015-0.283-2.056-0.425-3.126-0.425h-5.576v16.745h5.746c1.013,0,2.014-0.156,2.999-0.468c0.985-0.311,1.857-0.808,2.619-1.487 c0.759-0.681,1.38-1.559,1.857-2.636C624.117,39.399,624.357,38.095,624.357,36.565z M625.803,62.32 c0-1.756-0.283-3.243-0.847-4.463c-0.562-1.218-1.296-2.21-2.197-2.975c-0.902-0.766-1.888-1.317-2.958-1.658 c-1.07-0.34-2.143-0.51-3.213-0.51h-6.171V71.5h6.425c1.24,0,2.396-0.184,3.466-0.553c1.07-0.367,2.014-0.935,2.832-1.7 c0.816-0.765,1.465-1.713,1.944-2.847C625.562,65.268,625.803,63.907,625.803,62.32z"/>
	<polygon fill="#D4EAF7" points="488.357,30.615 473.652,71.16 504.082,71.16 	"/>
</g>
</svg>
