<svg xmlns="http://www.w3.org/2000/svg" width="313" height="60" viewBox="0 0 313 60"><style>.a{fill:#2C2A25;}.b{fill:#d8e8fd}</style><polygon points="68.943 12 62.308 12 39.092 4 16.004 11.998 16.004 50.328 62.18 50.328 62.18 17.184 68.943 17.184 " class="a"/><rect x="21.979" y="17.184" width="34.2" height="20.649" fill="#FFF"/><path d="M45.499 47.998l-1.78-7.627h-9.458l-1.831 7.627h-6.102l8.949-36h7.78l8.797 36H45.499zM39.143 17.744h-0.203l-3.915 17.848h7.932L39.143 17.744z" fill="#DE9A12"/><path d="M73.784 48V12h16.119v5.39H79.632v9.559h9.509v4.983h-9.509V42.56h10.78V48H73.784z" class="a"/><path d="M97.236 48V12h6.153v30.356h9.915V48H97.236z" class="a"/><path d="M118.553 48V12h6.102v36H118.553z" class="a"/><path d="M133.259 48V12h16.119v5.39h-10.271v9.559h9.509v4.983h-9.509V42.56h10.78V48H133.259z" class="a"/><path d="M171.609 48l-5.593-15.356h-3.407V48h-5.898V12h10.271c1.491 0 2.864 0.195 4.119 0.585 1.254 0.39 2.33 1.009 3.229 1.856 0.898 0.848 1.602 1.916 2.11 3.203 0.508 1.289 0.763 2.831 0.763 4.627 0 1.39-0.178 2.619-0.534 3.687 -0.356 1.068-0.806 1.975-1.348 2.72 -0.543 0.746-1.144 1.347-1.805 1.805 -0.661 0.458-1.314 0.771-1.958 0.941L178.016 48H171.609zM171.203 22.576c0-1.084-0.153-1.983-0.458-2.695 -0.305-0.712-0.704-1.271-1.195-1.678 -0.492-0.407-1.042-0.694-1.653-0.864 -0.61-0.169-1.22-0.254-1.831-0.254h-3.458v11.085h3.458c1.491 0 2.72-0.466 3.686-1.398C170.72 25.839 171.203 24.441 171.203 22.576z" class="a"/><path d="M204.976 38.382c0 1.899-0.314 3.484-0.94 4.755 -0.628 1.271-1.424 2.305-2.389 3.101 -0.966 0.796-2.052 1.364-3.254 1.703 -1.204 0.34-2.382 0.508-3.534 0.508H184.18V12l9.559 0.451c1.051 0 2.169 0.127 3.356 0.381 1.187 0.254 2.271 0.712 3.254 1.373 0.983 0.661 1.796 1.576 2.441 2.745 0.644 1.169 0.965 2.687 0.965 4.551 0 2.237-0.475 4-1.423 5.288 -0.949 1.288-2.052 2.186-3.305 2.694v0.102c0.677 0.17 1.363 0.458 2.059 0.864 0.695 0.407 1.331 0.975 1.907 1.703 0.576 0.73 1.051 1.611 1.424 2.645C204.789 35.832 204.976 37.027 204.976 38.382zM198.265 22.468c0-0.916-0.144-1.686-0.43-2.314 -0.286-0.627-0.657-1.135-1.111-1.525 -0.456-0.389-0.986-0.669-1.592-0.839 -0.608-0.169-1.23-0.254-1.871-0.254h-3.335v10.016h3.437c0.606 0 1.205-0.093 1.793-0.28 0.59-0.186 1.111-0.483 1.567-0.89 0.454-0.406 0.825-0.931 1.111-1.576C198.121 24.163 198.265 23.383 198.265 22.468zM199.129 37.873c0-1.05-0.169-1.939-0.505-2.669 -0.338-0.728-0.776-1.322-1.315-1.78 -0.54-0.457-1.129-0.787-1.77-0.991 -0.641-0.204-1.281-0.305-1.922-0.305h-3.691v11.236h3.843c0.742 0 1.433-0.109 2.074-0.331 0.64-0.219 1.204-0.559 1.693-1.017 0.489-0.458 0.877-1.025 1.163-1.703C198.985 39.637 199.129 38.823 199.129 37.873z" class="b"/><path d="M226.739 48l-5.593-15.356h-3.406V48h-5.899V12h10.272c1.491 0 2.864 0.195 4.118 0.584 1.253 0.39 2.33 1.009 3.229 1.856 0.898 0.848 1.602 1.916 2.11 3.203 0.508 1.289 0.763 2.831 0.763 4.627 0 1.39-0.178 2.619-0.534 3.686 -0.356 1.068-0.805 1.975-1.347 2.72 -0.543 0.746-1.144 1.348-1.805 1.805 -0.661 0.457-1.314 0.771-1.957 0.94L233.145 48H226.739zM226.331 22.576c0-1.084-0.152-1.983-0.457-2.695 -0.306-0.712-0.704-1.271-1.196-1.678 -0.492-0.407-1.042-0.695-1.653-0.865 -0.61-0.169-1.22-0.254-1.83-0.254h-3.457v11.085h3.457c1.492 0 2.72-0.466 3.686-1.398C225.849 25.84 226.331 24.441 226.331 22.576z" class="b"/><path d="M254.806 48l-1.78-7.627h-9.457L241.738 48h-6.102l8.95-36h7.779l8.797 36H254.806zM248.45 17.746h-0.204l-3.915 17.847h7.932L248.45 17.746z" class="b"/><path d="M290.908 48l0.101-27.661h-0.153L283.636 48h-4.78l-7.068-27.661h-0.152L271.738 48h-5.543V12h8.187l6.915 26.339h0.204L288.263 12h8.593v36H290.908z" class="b"/></svg>
